<?xml version="1.0" encoding="utf-8"?>
<svg xmlns="http://www.w3.org/2000/svg" version="1.1" width="256" height="256" viewBox="0 0 256 256">
  <g style="stroke: none; stroke-width: 0; stroke-dasharray: none; stroke-linecap: butt; stroke-linejoin: miter; stroke-miterlimit: 10; fill: none; fill-rule: nonzero; opacity: 1;" transform="translate(1.4065934065934016 1.4065934065934016) scale(2.81 2.81)">
    <path d="M 46.715 90 c -3.908 0 -7.841 -0.514 -11.717 -1.552 C 23.391 85.337 13.69 77.893 7.682 67.487 C 1.674 57.08 0.077 44.957 3.188 33.349 c 3.11 -11.607 10.554 -21.308 20.961 -27.316 c 8.601 -4.967 18.349 -6.923 28.193 -5.659 c 1.257 0.162 2.277 1.095 2.548 2.332 c 0.271 1.238 -0.265 2.512 -1.338 3.185 c -13.943 8.735 -18.418 26.742 -10.188 40.996 l 0 0 C 51.592 61.14 69.426 66.268 83.96 58.56 c 1.117 -0.596 2.491 -0.421 3.426 0.434 c 0.936 0.854 1.235 2.204 0.746 3.373 c -3.826 9.156 -10.395 16.621 -18.997 21.586 C 62.204 87.955 54.509 90 46.715 90 z M 43.74 6.101 c -5.805 0.421 -11.436 2.15 -16.592 5.127 c -9.019 5.207 -15.47 13.614 -18.166 23.674 C 6.287 44.961 7.67 55.469 12.877 64.488 c 5.207 9.019 13.614 15.471 23.673 18.165 c 10.058 2.697 20.567 1.311 29.585 -3.895 c 5.156 -2.977 9.47 -6.989 12.737 -11.806 c -15.547 4.094 -32.303 -2.515 -40.705 -17.066 l 0 0 C 29.768 35.336 32.427 17.518 43.74 6.101 z" style="stroke: none; stroke-width: 1; stroke-dasharray: none; stroke-linecap: butt; stroke-linejoin: miter; stroke-miterlimit: 10; fill-rule: nonzero; opacity: 1; fill: rgb(255, 255, 255);" transform=" matrix(1 0 0 1 0 0) " stroke-linecap="round"/>
  </g>
  <path style="fill: rgb(255, 255, 255); stroke: rgb(255, 255, 255);" d="M 140.652 15.117 C 136.704 13.801 132.155 14.131 127.836 14.131 C 126.555 14.131 123.921 13.774 123.235 14.46 C 122.47 15.224 118.741 14.57 117.648 15.117 C 116.065 15.908 113.948 14.666 112.39 15.445 C 107.454 17.914 98.279 15.425 94.973 18.732 C 94.371 19.334 92.618 18.786 92.015 19.389 C 88.785 22.619 81.949 21.568 78.542 24.976 C 75.46 28.057 69.684 28.904 66.383 32.205 C 64.538 34.05 62.717 36.503 60.139 37.792 C 56.566 39.578 53.478 43.138 50.937 45.679 C 49.558 47.058 47.014 48.287 45.35 49.951 C 36.865 58.437 30.063 71.653 24.647 82.485 C 21.664 88.451 22.287 94.704 17.746 99.245 C 16.878 100.113 17.256 102.693 16.431 103.517 C 15.036 104.913 16.132 109.732 14.788 111.076 C 14.35 111.514 15.226 113.267 14.788 113.705 C 13.583 114.91 15.007 118.744 13.802 119.949 C 12.44 121.311 14.088 124.636 13.145 126.521 C 11.694 129.423 11.287 141.208 12.816 144.267 C 14.454 147.543 14.872 152.238 17.089 154.454 C 18.147 155.513 17.943 158.267 19.06 159.384 C 20.228 160.551 19.568 163.177 20.703 164.313 C 22.798 166.408 21.007 172.176 23.332 174.501 C 29.198 180.366 30.138 189.193 35.492 194.547 C 45.115 204.171 55.207 216.235 67.04 222.151 C 69.761 223.512 73.435 226.247 75.913 228.724 C 78.461 231.272 82.942 231.481 85.771 234.311 C 88.242 236.781 94.207 236.503 96.945 239.24 C 97.742 240.037 100.595 239.604 101.546 240.555 C 102.422 241.431 104.941 240.664 105.818 241.54 C 108.21 243.933 114.644 242.832 117.977 244.498 C 119.783 245.401 122.366 243.899 124.221 244.827 C 128.381 246.907 135.788 245.813 140.981 245.813 C 141.871 245.813 146.001 246.379 146.567 245.813 C 147.837 244.543 153.115 245.155 155.44 245.155 C 157.789 245.155 164.183 244.3 165.628 242.855 C 166.615 241.867 169.047 242.721 169.9 241.869 C 172.892 238.877 179.43 239.24 182.388 236.282 C 186.505 232.165 193.975 231.596 198.162 227.41 C 200.254 225.317 203.759 224.113 206.377 221.494 C 209.32 218.552 212.267 215.604 215.579 212.293 C 218.315 209.557 221.666 207.678 223.137 204.734 C 225.848 199.313 228.645 195.034 231.024 190.275 C 231.681 188.962 234.364 185.124 233.325 183.045 C 231.937 180.269 230.973 180.087 227.081 180.087 C 226.663 180.087 224.718 179.821 224.452 180.087 C 223.248 181.291 219.655 180.283 218.537 181.402 C 217.669 182.269 214.76 181.563 213.936 182.388 C 211.915 184.409 205.629 184.688 202.105 184.688 C 200.124 184.688 193.217 185.658 191.918 184.359 C 189.954 182.396 184.977 182.532 182.059 181.073 C 177.242 178.664 169.36 177.904 165.628 174.172 C 164.243 172.787 160.416 173.233 159.055 171.872 C 155.116 167.932 147.365 167.739 143.61 163.985 C 140.285 160.66 135.198 157.873 131.779 154.454 C 129.392 152.067 126.771 148.131 124.221 145.582 C 119.112 140.473 118.269 132.071 113.705 127.507 C 111.897 125.7 112.883 121.099 111.076 119.291 C 110.411 118.627 111.356 115.956 110.747 115.348 C 108.559 113.16 110.918 106.16 109.433 103.189 C 106.483 97.289 106.475 88.499 106.475 80.513 C 106.475 79.256 105.675 73.427 106.475 72.626 C 109.07 70.031 108.188 63.355 110.747 60.796 C 111.69 59.853 110.666 56.933 111.733 55.866 C 113.304 54.296 112.507 50.82 114.362 48.965 C 116.193 47.134 116.388 43.325 118.306 41.407 C 120.51 39.202 122.257 36.141 124.549 33.849 C 129.241 29.157 130.938 22.53 135.065 18.403 C 135.587 17.881 137.316 14.46 137.694 14.46"/>
</svg>